<?xml version="1.0" standalone="no"?>
<svg xmlns:xlink="http://www.w3.org/1999/xlink" id="wave" style="transform:rotate(180deg); transition: 0.3s" viewBox="0 0 1440 490" version="1.1" xmlns="http://www.w3.org/2000/svg"><defs><linearGradient id="sw-gradient-0" x1="0" x2="0" y1="1" y2="0"><stop stop-color="rgba(81, 18, 129, 1)" offset="0%"/><stop stop-color="rgba(33, 9, 78, 1)" offset="100%"/></linearGradient></defs><path style="transform:translate(0, 0px); opacity:1" fill="url(#sw-gradient-0)" d="M0,196L12.6,187.8C25.3,180,51,163,76,171.5C101.1,180,126,212,152,236.8C176.8,261,202,278,227,261.3C252.6,245,278,196,303,196C328.4,196,354,245,379,261.3C404.2,278,429,261,455,277.7C480,294,505,343,531,375.7C555.8,408,581,425,606,359.3C631.6,294,657,147,682,106.2C707.4,65,733,131,758,155.2C783.2,180,808,163,834,196C858.9,229,884,310,909,310.3C934.7,310,960,229,985,179.7C1010.5,131,1036,114,1061,138.8C1086.3,163,1112,229,1137,212.3C1162.1,196,1187,98,1213,106.2C1237.9,114,1263,229,1288,253.2C1313.7,278,1339,212,1364,204.2C1389.5,196,1415,245,1440,228.7C1465.3,212,1491,131,1516,89.8C1541.1,49,1566,49,1592,73.5C1616.8,98,1642,147,1667,196C1692.6,245,1718,294,1743,294C1768.4,294,1794,245,1806,220.5L1818.9,196L1818.9,490L1806.3,490C1793.7,490,1768,490,1743,490C1717.9,490,1693,490,1667,490C1642.1,490,1617,490,1592,490C1566.3,490,1541,490,1516,490C1490.5,490,1465,490,1440,490C1414.7,490,1389,490,1364,490C1338.9,490,1314,490,1288,490C1263.2,490,1238,490,1213,490C1187.4,490,1162,490,1137,490C1111.6,490,1086,490,1061,490C1035.8,490,1011,490,985,490C960,490,935,490,909,490C884.2,490,859,490,834,490C808.4,490,783,490,758,490C732.6,490,707,490,682,490C656.8,490,632,490,606,490C581.1,490,556,490,531,490C505.3,490,480,490,455,490C429.5,490,404,490,379,490C353.7,490,328,490,303,490C277.9,490,253,490,227,490C202.1,490,177,490,152,490C126.3,490,101,490,76,490C50.5,490,25,490,13,490L0,490Z"/></svg>